<svg width="1375" height="118" viewBox="0 0 1375 118" fill="none" xmlns="http://www.w3.org/2000/svg">
<path d="M703 58.5C703.003 53.3593 701.685 48.3041 699.172 43.8194C696.659 39.3346 693.036 35.5708 688.651 32.8889C684.265 30.2071 679.264 28.6972 674.127 28.5042C668.99 28.3111 663.889 29.4413 659.315 31.7864C654.74 34.1315 650.845 37.6128 648.002 41.8963C645.16 46.1798 643.466 51.1218 643.083 56.2482C642.7 61.3746 643.641 66.5134 645.815 71.1716C647.99 75.8299 651.325 79.8513 655.5 82.85V88.5C655.5 89.8261 656.027 91.0978 656.964 92.0355C657.902 92.9732 659.174 93.5 660.5 93.5H685.5C686.826 93.5 688.098 92.9732 689.036 92.0355C689.973 91.0978 690.5 89.8261 690.5 88.5V82.85C694.366 80.0737 697.515 76.4176 699.689 72.1836C701.862 67.9496 702.997 63.2593 703 58.5V58.5Z" stroke="#002F61" stroke-width="4" stroke-linecap="round" stroke-linejoin="round"/>
<path d="M660.5 63.5C661.881 63.5 663 62.3807 663 61C663 59.6193 661.881 58.5 660.5 58.5C659.119 58.5 658 59.6193 658 61C658 62.3807 659.119 63.5 660.5 63.5Z" stroke="#002F61" stroke-width="4" stroke-linecap="round" stroke-linejoin="round"/>
<path d="M685.5 63.5C686.881 63.5 688 62.3807 688 61C688 59.6193 686.881 58.5 685.5 58.5C684.119 58.5 683 59.6193 683 61C683 62.3807 684.119 63.5 685.5 63.5Z" stroke="#002F61" stroke-width="4" stroke-linecap="round" stroke-linejoin="round"/>
<path d="M668 83.5V93.5" stroke="#002F61" stroke-width="4" stroke-linecap="round" stroke-linejoin="round"/>
<path d="M678 83.5V93.5" stroke="#002F61" stroke-width="4" stroke-linecap="round" stroke-linejoin="round"/>
<line x1="718.982" y1="102.982" x2="1365.98" y2="99.0185" stroke="#002F61" stroke-width="6" stroke-linecap="round"/>
<path d="M718.8 88V22H765.1V29.5H726.8V50.8H756.6V58.3H726.8V80.5H766.6V88H718.8ZM848.67 88H839.47L821.57 60.8L803.57 88H794.27L817.37 54.4L796.27 22H805.67L822.37 47.7L839.27 22H847.97L826.57 54L848.67 88ZM905.928 22C910.395 22 914.261 22.8333 917.528 24.5C920.861 26.1 923.461 28.4 925.328 31.4C927.195 34.4 928.128 37.9667 928.128 42.1C928.128 46.2333 927.195 49.8 925.328 52.8C923.461 55.8 920.861 58.1333 917.528 59.8C914.261 61.4 910.395 62.2 905.928 62.2H890.628V88H882.628V22H905.928ZM904.728 54.7C909.928 54.7 913.728 53.6333 916.128 51.5C918.528 49.3 919.728 46.1667 919.728 42.1C919.728 37.9667 918.528 34.8333 916.128 32.7C913.728 30.5667 909.928 29.5 904.728 29.5H890.628V54.7H904.728ZM971.663 80.5H1009.46V88H963.663V22H971.663V80.5ZM1067.69 21C1073.95 21 1079.35 22.4 1083.89 25.2C1088.49 27.9333 1092.02 31.8333 1094.49 36.9C1097.02 41.9667 1098.29 48 1098.29 55C1098.29 62 1097.02 68.0333 1094.49 73.1C1092.02 78.1667 1088.49 82.1 1083.89 84.9C1079.35 87.6333 1073.95 89 1067.69 89C1061.42 89 1055.99 87.6333 1051.39 84.9C1046.85 82.1 1043.32 78.1667 1040.79 73.1C1038.32 68.0333 1037.09 62 1037.09 55C1037.09 48 1038.32 41.9667 1040.79 36.9C1043.32 31.8333 1046.85 27.9333 1051.39 25.2C1055.99 22.4 1061.42 21 1067.69 21ZM1067.69 28.5C1063.15 28.5 1059.22 29.5667 1055.89 31.7C1052.55 33.7667 1049.99 36.8 1048.19 40.8C1046.39 44.7333 1045.49 49.4667 1045.49 55C1045.49 60.5333 1046.39 65.3 1048.19 69.3C1049.99 73.2333 1052.55 76.2667 1055.89 78.4C1059.22 80.4667 1063.15 81.5 1067.69 81.5C1072.29 81.5 1076.22 80.4667 1079.49 78.4C1082.82 76.2667 1085.39 73.2333 1087.19 69.3C1088.99 65.3 1089.89 60.5333 1089.89 55C1089.89 49.4667 1088.99 44.7333 1087.19 40.8C1085.39 36.8 1082.82 33.7667 1079.49 31.7C1076.22 29.5667 1072.29 28.5 1067.69 28.5ZM1160.89 22C1167.62 22 1173.02 23.7333 1177.09 27.2C1181.16 30.6667 1183.19 35.3667 1183.19 41.3C1183.19 47.2333 1181.12 51.8667 1176.99 55.2C1172.92 58.4667 1167.52 60.1 1160.79 60.1L1160.09 60.6H1143.89V88H1135.89V22H1160.89ZM1160.79 53.1C1165.52 53.1 1169.02 52.1333 1171.29 50.2C1173.62 48.2 1174.79 45.2333 1174.79 41.3C1174.79 37.3667 1173.62 34.4333 1171.29 32.5C1169.02 30.5 1165.52 29.5 1160.79 29.5H1143.89V53.1H1160.79ZM1165.39 54.7L1187.19 88H1177.69L1158.69 59.1L1165.39 54.7ZM1222.39 88V22H1268.69V29.5H1230.39V50.8H1260.19V58.3H1230.39V80.5H1270.19V88H1222.39ZM1331.16 22C1337.9 22 1343.3 23.7333 1347.36 27.2C1351.43 30.6667 1353.46 35.3667 1353.46 41.3C1353.46 47.2333 1351.4 51.8667 1347.26 55.2C1343.2 58.4667 1337.8 60.1 1331.06 60.1L1330.36 60.6H1314.16V88H1306.16V22H1331.16ZM1331.06 53.1C1335.8 53.1 1339.3 52.1333 1341.56 50.2C1343.9 48.2 1345.06 45.2333 1345.06 41.3C1345.06 37.3667 1343.9 34.4333 1341.56 32.5C1339.3 30.5 1335.8 29.5 1331.06 29.5H1314.16V53.1H1331.06ZM1335.66 54.7L1357.46 88H1347.96L1328.96 59.1L1335.66 54.7Z" fill="#002F61"/>
<path d="M113.897 20.8V100H92.2969V68.32L92.7769 42.76H92.5369L75.1369 100H55.4569L38.2969 42.76H37.9369L38.4169 68.32V100H16.8169V20.8H51.3769L62.0569 58.36L66.0169 74.08H66.2569L70.2169 58.36L80.8969 20.8H113.897ZM127.179 100V20.8H191.019V39.16H151.659V52H183.099V69.04H151.659V81.64H192.579V100H127.179ZM234.099 101.2C227.139 101.2 220.939 99.68 215.499 96.64C210.059 93.6 205.779 89.04 202.659 82.96C199.539 76.88 197.979 69.44 197.979 60.64C197.979 52 199.579 44.64 202.779 38.56C206.059 32.4 210.739 27.72 216.819 24.52C222.899 21.24 230.099 19.6 238.419 19.6C247.779 19.6 255.299 21.28 260.979 24.64C266.739 28 271.179 33.32 274.299 40.6L251.499 49.12C250.699 45.2 249.179 42.44 246.939 40.84C244.699 39.16 241.899 38.32 238.539 38.32C235.099 38.32 232.219 39.16 229.899 40.84C227.659 42.44 225.979 44.88 224.859 48.16C223.739 51.44 223.179 55.52 223.179 60.4C223.179 65.68 223.779 70 224.979 73.36C226.259 76.72 228.179 79.2 230.739 80.8C233.299 82.32 236.459 83.08 240.219 83.08C242.139 83.08 243.899 82.88 245.499 82.48C247.099 82 248.499 81.32 249.699 80.44C250.979 79.56 251.939 78.48 252.579 77.2C253.219 75.84 253.539 74.28 253.539 72.52V71.92H237.939V56.2H274.179V100H257.739L255.819 79.96L259.659 83.8C258.219 89.4 255.339 93.72 251.019 96.76C246.699 99.72 241.059 101.2 234.099 101.2ZM361.501 100H336.301L331.861 83.56H307.741L303.181 100H278.701L305.341 20.8H334.741L361.501 100ZM311.821 67.72H327.901L319.861 38.2L311.821 67.72ZM468.489 76.48C467.049 82.32 464.609 87.08 461.169 90.76C457.809 94.44 453.689 97.12 448.809 98.8C444.009 100.4 438.689 101.2 432.849 101.2C424.689 101.2 417.609 99.6 411.609 96.4C405.689 93.12 401.129 88.44 397.929 82.36C394.729 76.28 393.129 68.96 393.129 60.4C393.129 51.84 394.729 44.52 397.929 38.44C401.129 32.36 405.689 27.72 411.609 24.52C417.609 21.24 424.649 19.6 432.729 19.6C438.489 19.6 443.769 20.4 448.569 22C453.449 23.6 457.569 26.08 460.929 29.44C464.289 32.8 466.569 37.16 467.769 42.52L446.529 51.04C445.649 45.92 444.089 42.52 441.849 40.84C439.689 39.16 436.889 38.32 433.449 38.32C430.249 38.32 427.489 39.16 425.169 40.84C422.929 42.44 421.209 44.88 420.009 48.16C418.889 51.36 418.329 55.44 418.329 60.4C418.329 65.28 418.849 69.36 419.889 72.64C421.009 75.92 422.689 78.4 424.929 80.08C427.249 81.68 430.249 82.48 433.929 82.48C437.209 82.48 439.969 81.52 442.209 79.6C444.449 77.68 445.929 74.68 446.649 70.6L468.489 76.48ZM551.495 100H526.295L521.855 83.56H497.735L493.175 100H468.695L495.335 20.8H524.735L551.495 100ZM501.815 67.72H517.895L509.855 38.2L501.815 67.72ZM596.566 20.8C603.366 20.8 609.126 21.88 613.846 24.04C618.646 26.12 622.286 29.2 624.766 33.28C627.326 37.28 628.606 42.2 628.606 48.04C628.606 53.88 627.326 58.84 624.766 62.92C622.286 66.92 618.646 70 613.846 72.16C609.126 74.24 603.366 75.28 596.566 75.28H581.686V100H557.206V20.8H596.566ZM592.606 57.52C596.206 57.52 599.006 56.76 601.006 55.24C603.006 53.64 604.006 51.24 604.006 48.04C604.006 44.84 603.006 42.48 601.006 40.96C599.006 39.36 596.206 38.56 592.606 38.56H581.686V57.52H592.606Z" fill="#002F61"/>
</svg>
