<svg width="800" height="228" viewBox="0 0 800 228" fill="none" xmlns="http://www.w3.org/2000/svg">
<path d="M125.697 17.8V97H104.097V65.32L104.577 39.76H104.337L86.9369 97H67.2569L50.0969 39.76H49.7369L50.2169 65.32V97H28.6169V17.8H63.1769L73.8569 55.36L77.8169 71.08H78.0569L82.0169 55.36L92.6969 17.8H125.697ZM158.179 97V17.8H222.019V36.16H182.659V49H214.099V66.04H182.659V78.64H223.579V97H158.179ZM284.299 98.2C277.339 98.2 271.139 96.68 265.699 93.64C260.259 90.6 255.979 86.04 252.859 79.96C249.739 73.88 248.179 66.44 248.179 57.64C248.179 49 249.779 41.64 252.979 35.56C256.259 29.4 260.939 24.72 267.019 21.52C273.099 18.24 280.299 16.6 288.619 16.6C297.979 16.6 305.499 18.28 311.179 21.64C316.939 25 321.379 30.32 324.499 37.6L301.699 46.12C300.899 42.2 299.379 39.44 297.139 37.84C294.899 36.16 292.099 35.32 288.739 35.32C285.299 35.32 282.419 36.16 280.099 37.84C277.859 39.44 276.179 41.88 275.059 45.16C273.939 48.44 273.379 52.52 273.379 57.4C273.379 62.68 273.979 67 275.179 70.36C276.459 73.72 278.379 76.2 280.939 77.8C283.499 79.32 286.659 80.08 290.419 80.08C292.339 80.08 294.099 79.88 295.699 79.48C297.299 79 298.699 78.32 299.899 77.44C301.179 76.56 302.139 75.48 302.779 74.2C303.419 72.84 303.739 71.28 303.739 69.52V68.92H288.139V53.2H324.379V97H307.939L306.019 76.96L309.859 80.8C308.419 86.4 305.539 90.72 301.219 93.76C296.899 96.72 291.259 98.2 284.299 98.2ZM430.901 97H405.701L401.261 80.56H377.141L372.581 97H348.101L374.741 17.8H404.141L430.901 97ZM381.221 64.72H397.301L389.261 35.2L381.221 64.72ZM576.289 73.48C574.849 79.32 572.409 84.08 568.969 87.76C565.609 91.44 561.489 94.12 556.609 95.8C551.809 97.4 546.489 98.2 540.649 98.2C532.489 98.2 525.409 96.6 519.409 93.4C513.489 90.12 508.929 85.44 505.729 79.36C502.529 73.28 500.929 65.96 500.929 57.4C500.929 48.84 502.529 41.52 505.729 35.44C508.929 29.36 513.489 24.72 519.409 21.52C525.409 18.24 532.449 16.6 540.529 16.6C546.289 16.6 551.569 17.4 556.369 19C561.249 20.6 565.369 23.08 568.729 26.44C572.089 29.8 574.369 34.16 575.569 39.52L554.329 48.04C553.449 42.92 551.889 39.52 549.649 37.84C547.489 36.16 544.689 35.32 541.249 35.32C538.049 35.32 535.289 36.16 532.969 37.84C530.729 39.44 529.009 41.88 527.809 45.16C526.689 48.36 526.129 52.44 526.129 57.4C526.129 62.28 526.649 66.36 527.689 69.64C528.809 72.92 530.489 75.4 532.729 77.08C535.049 78.68 538.049 79.48 541.729 79.48C545.009 79.48 547.769 78.52 550.009 76.6C552.249 74.68 553.729 71.68 554.449 67.6L576.289 73.48ZM678.495 97H653.295L648.855 80.56H624.735L620.175 97H595.695L622.335 17.8H651.735L678.495 97ZM628.815 64.72H644.895L636.855 35.2L628.815 64.72ZM742.766 17.8C749.566 17.8 755.326 18.88 760.046 21.04C764.846 23.12 768.486 26.2 770.966 30.28C773.526 34.28 774.806 39.2 774.806 45.04C774.806 50.88 773.526 55.84 770.966 59.92C768.486 63.92 764.846 67 760.046 69.16C755.326 71.24 749.566 72.28 742.766 72.28H727.886V97H703.406V17.8H742.766ZM738.806 54.52C742.406 54.52 745.206 53.76 747.206 52.24C749.206 50.64 750.206 48.24 750.206 45.04C750.206 41.84 749.206 39.48 747.206 37.96C745.206 36.36 742.406 35.56 738.806 35.56H727.886V54.52H738.806Z" fill="#002F61"/>
<path d="M773.857 144.929C773.861 138.613 772.241 132.402 769.154 126.892C766.067 121.383 761.616 116.758 756.228 113.464C750.84 110.169 744.695 108.314 738.384 108.077C732.073 107.839 725.807 109.228 720.186 112.109C714.566 114.99 709.78 119.267 706.289 124.53C702.797 129.792 700.716 135.864 700.245 142.162C699.775 148.46 700.931 154.774 703.602 160.497C706.273 166.22 710.37 171.16 715.5 174.844V181.786C715.5 183.415 716.147 184.977 717.299 186.129C718.451 187.281 720.014 187.929 721.643 187.929H752.357C753.986 187.929 755.549 187.281 756.701 186.129C757.853 184.977 758.5 183.415 758.5 181.786V174.844C763.249 171.433 767.119 166.942 769.789 161.74C772.459 156.538 773.854 150.776 773.857 144.929V144.929Z" stroke="#002F61" stroke-width="4" stroke-linecap="round" stroke-linejoin="round"/>
<path d="M721.643 151.071C723.339 151.071 724.714 149.696 724.714 148C724.714 146.304 723.339 144.929 721.643 144.929C719.947 144.929 718.571 146.304 718.571 148C718.571 149.696 719.947 151.071 721.643 151.071Z" stroke="#002F61" stroke-width="4" stroke-linecap="round" stroke-linejoin="round"/>
<path d="M752.357 151.071C754.053 151.071 755.429 149.696 755.429 148C755.429 146.304 754.053 144.929 752.357 144.929C750.661 144.929 749.286 146.304 749.286 148C749.286 149.696 750.661 151.071 752.357 151.071Z" stroke="#002F61" stroke-width="4" stroke-linecap="round" stroke-linejoin="round"/>
<path d="M730.857 175.643V187.929" stroke="#002F61" stroke-width="4" stroke-linecap="round" stroke-linejoin="round"/>
<path d="M743.143 175.643V187.929" stroke="#002F61" stroke-width="4" stroke-linecap="round" stroke-linejoin="round"/>
<line x1="28" y1="201" x2="777" y2="201" stroke="#002F61" stroke-width="6" stroke-linecap="round"/>
<path d="M28.368 181V117.64H72.816V124.84H36.048V145.288H64.656V152.488H36.048V173.8H74.256V181H28.368ZM157.843 181H149.011L131.827 154.888L114.547 181H105.619L127.795 148.744L107.539 117.64H116.563L132.595 142.312L148.819 117.64H157.171L136.627 148.36L157.843 181ZM217.611 117.64C221.899 117.64 225.611 118.44 228.747 120.04C231.947 121.576 234.443 123.784 236.235 126.664C238.027 129.544 238.923 132.968 238.923 136.936C238.923 140.904 238.027 144.328 236.235 147.208C234.443 150.088 231.947 152.328 228.747 153.928C225.611 155.464 221.899 156.232 217.611 156.232H202.923V181H195.243V117.64H217.611ZM216.459 149.032C221.451 149.032 225.099 148.008 227.403 145.96C229.707 143.848 230.859 140.84 230.859 136.936C230.859 132.968 229.707 129.96 227.403 127.912C225.099 125.864 221.451 124.84 216.459 124.84H202.923V149.032H216.459ZM285.517 173.8H321.805V181H277.837V117.64H285.517V173.8ZM382.498 116.68C388.514 116.68 393.698 118.024 398.05 120.712C402.466 123.336 405.858 127.08 408.226 131.944C410.658 136.808 411.874 142.6 411.874 149.32C411.874 156.04 410.658 161.832 408.226 166.696C405.858 171.56 402.466 175.336 398.05 178.024C393.698 180.648 388.514 181.96 382.498 181.96C376.482 181.96 371.266 180.648 366.85 178.024C362.498 175.336 359.106 171.56 356.674 166.696C354.306 161.832 353.122 156.04 353.122 149.32C353.122 142.6 354.306 136.808 356.674 131.944C359.106 127.08 362.498 123.336 366.85 120.712C371.266 118.024 376.482 116.68 382.498 116.68ZM382.498 123.88C378.146 123.88 374.37 124.904 371.17 126.952C367.97 128.936 365.506 131.848 363.778 135.688C362.05 139.464 361.186 144.008 361.186 149.32C361.186 154.632 362.05 159.208 363.778 163.048C365.506 166.824 367.97 169.736 371.17 171.784C374.37 173.768 378.146 174.76 382.498 174.76C386.914 174.76 390.69 173.768 393.826 171.784C397.026 169.736 399.49 166.824 401.218 163.048C402.946 159.208 403.81 154.632 403.81 149.32C403.81 144.008 402.946 139.464 401.218 135.688C399.49 131.848 397.026 128.936 393.826 126.952C390.69 124.904 386.914 123.88 382.498 123.88ZM476.774 117.64C483.238 117.64 488.422 119.304 492.326 122.632C496.23 125.96 498.182 130.472 498.182 136.168C498.182 141.864 496.198 146.312 492.23 149.512C488.326 152.648 483.142 154.216 476.678 154.216L476.006 154.696H460.454V181H452.774V117.64H476.774ZM476.678 147.496C481.222 147.496 484.582 146.568 486.758 144.712C488.998 142.792 490.118 139.944 490.118 136.168C490.118 132.392 488.998 129.576 486.758 127.72C484.582 125.8 481.222 124.84 476.678 124.84H460.454V147.496H476.678ZM481.094 149.032L502.022 181H492.902L474.662 153.256L481.094 149.032ZM540.618 181V117.64H585.066V124.84H548.298V145.288H576.906V152.488H548.298V173.8H586.506V181H540.618ZM649.837 117.64C656.301 117.64 661.485 119.304 665.389 122.632C669.293 125.96 671.245 130.472 671.245 136.168C671.245 141.864 669.261 146.312 665.293 149.512C661.389 152.648 656.205 154.216 649.741 154.216L649.069 154.696H633.517V181H625.837V117.64H649.837ZM649.741 147.496C654.285 147.496 657.645 146.568 659.821 144.712C662.061 142.792 663.181 139.944 663.181 136.168C663.181 132.392 662.061 129.576 659.821 127.72C657.645 125.8 654.285 124.84 649.741 124.84H633.517V147.496H649.741ZM654.157 149.032L675.085 181H665.965L647.725 153.256L654.157 149.032Z" fill="#002F61"/>
</svg>
